<svg xmlns="http://www.w3.org/2000/svg" viewBox="0 0 64 64" id="app-manage"><path fill="#88e2de" d="M29.034 11.273H12.608a1.5 1.5 0 0 0-1.5 1.5V29.2a1.5 1.5 0 0 0 1.5 1.5h16.426a1.5 1.5 0 0 0 1.5-1.5V12.773a1.5 1.5 0 0 0-1.5-1.5Zm-1.5 16.427H14.108V14.273h13.426Zm1.5 5.677H12.608a1.5 1.5 0 0 0-1.5 1.5V51.3a1.5 1.5 0 0 0 1.5 1.5h16.426a1.5 1.5 0 0 0 1.5-1.5V34.875a1.5 1.5 0 0 0-1.5-1.5Zm-1.5 16.423H14.108V36.375h13.426Zm23.6-16.425H34.71a1.5 1.5 0 0 0-1.5 1.5V51.3a1.5 1.5 0 0 0 1.5 1.5h16.425a1.5 1.5 0 0 0 1.5-1.5V34.875a1.5 1.5 0 0 0-1.5-1.5ZM49.635 49.8H36.21V36.375h13.425ZM35.92 19.91l.06 2.47c-.55.13-1.08 1.32-1.25 1.89l1.51 2.49c.59.11 1.88.18 2.25-.25l2.17 1.19c-.16.54.6 1.59 1.01 2.02l2.91-.07c.39-.44 1.1-1.53.91-2.06l2.12-1.29c.38.41 1.67.28 2.25.14l1.4-2.56c-.19-.56-.78-1.72-1.34-1.82l-.05-2.47c.55-.13 1.08-1.32 1.25-1.88l-1.52-2.49c-.58-.12-1.88-.19-2.24.24l-2.18-1.19c.17-.54-.59-1.59-1-2.02l-2.92.07c-.38.44-1.1 1.53-.91 2.06l-2.11 1.29c-.39-.41-1.68-.28-2.25-.14l-1.4 2.56c.19.56.78 1.72 1.33 1.82Zm4.72-.17a2.6 2.6 0 1 1 1.04 3.52 2.6 2.6 0 0 1-1.04-3.52Z" data-name="Manage Apps"></path></svg>