<svg xmlns="http://www.w3.org/2000/svg" enable-background="new 0 0 512 512" viewBox="0 0 512 512" id="business-documents"><path d="M478.9,109.8L375.8,4.8c-3-3.1-7.1-4.8-11.4-4.8H202.7c-8.8,0-16,7.2-16,16v290.6H44.5c-8.8,0-16,7.2-16,16V496
	c0,8.8,7.2,16,16,16H299c8.8,0,16-7.2,16-16V380.6h152.4c8.8,0,16-7.2,16-16V121C483.5,116.8,481.8,112.8,478.9,109.8z M379.7,54.4
	l48.4,49.3h-48.4V54.4z M283,480H60.5V338.6H283V480z M315,348.6v-26c0-8.8-7.2-16-16-16h-80.3V32h129v87.7c0,8.8,7.2,16,16,16h87.7
	v212.8H315V348.6z M238,114.5c0-8.8,7.2-16,16-16h47.7c8.8,0,16,7.2,16,16s-7.2,16-16,16H254C245.1,130.5,238,123.4,238,114.5z
	 M432.3,190.3c0,8.8-7.2,16-16,16H254c-8.8,0-16-7.2-16-16s7.2-16,16-16h162.3C425.1,174.3,432.3,181.4,432.3,190.3z M432.3,266
	c0,8.8-7.2,16-16,16H254c-8.8,0-16-7.2-16-16s7.2-16,16-16h162.3C425.1,250,432.3,257.2,432.3,266z M276.7,379.4c0,8.8-7.2,16-16,16
	h-69.5c-8.8,0-16-7.2-16-16s7.2-16,16-16h69.5C269.5,363.4,276.7,370.6,276.7,379.4z M276.7,439.1c0,8.8-7.2,16-16,16h-69.5
	c-8.8,0-16-7.2-16-16s7.2-16,16-16h69.5C269.5,423.1,276.7,430.3,276.7,439.1z M118.3,357.9c-28.3,0-51.4,23-51.4,51.4
	c0,28.3,23,51.4,51.4,51.4s51.4-23,51.4-51.4C169.6,380.9,146.6,357.9,118.3,357.9z M118.3,428.6c-10.7,0-19.4-8.7-19.4-19.4
	c0-10.7,8.7-19.4,19.4-19.4s19.4,8.7,19.4,19.4C137.6,420,129,428.6,118.3,428.6z M84.6,278l29.1,14.5c2.2,1.1,4.7,1.7,7.1,1.7
	s4.9-0.6,7.1-1.7L157,278c5.4-2.7,8.9-8.3,8.9-14.3v-215c0-17.4-18.6-29.6-45.1-29.6S75.7,31.4,75.7,48.8v215
	C75.7,269.8,79.1,275.3,84.6,278z M120.8,260.4l-13.1-6.5v-6.6h26.2v6.6L120.8,260.4z M107.7,215.3v-98.4h26.2v98.4H107.7z
	 M120.8,51.2c6,0,10.6,1.1,13.1,2.2v31.5h-26.2V53.4C110.3,52.3,114.8,51.2,120.8,51.2z"></path></svg>