<svg xmlns="http://www.w3.org/2000/svg" width="48" height="48" id="favourite"><path d="M24 0C10.751 0 0 10.749 0 23.998 0 37.248 10.752 48 24 48s24-10.753 24-24.002C48 10.748 37.249 0 24 0zm0 1.008c12.704 0 22.992 10.285 22.992 22.99 0 12.705-10.288 22.994-22.992 22.994S1.008 36.702 1.008 23.998c0-12.705 10.288-22.99 22.992-22.99zm-.5 9.586v2.812h1v-2.812h-1zm-7.188.031-.812.563 1.656 2.312.813-.594-1.657-2.281zm15.594 0-1.656 2.281.813.594 1.656-2.313-.813-.562zm-12.281 4.656a5.711 5.711 0 0 0-4.031 1.688c-2.222 2.211-2.22 5.736-.031 7.968 1.41 1.491 2.953 2.932 4.406 4.407L24 33.375l4.031-4.031L32.406 25a.837.837 0 0 0 .063-.063 5.642 5.642 0 0 0-.063-7.968 5.695 5.695 0 0 0-8.062 0 .519.519 0 0 1-.688 0 5.711 5.711 0 0 0-4.031-1.688zm-9.25 1.438-.375.937 2.625 1.032.375-.938-2.625-1.031zm27.25 0L35 17.75l.375.938L38 17.655l-.375-.937zM14 26.03l-2.625 1.032.375.937 2.625-1.063-.375-.906zm20 0-.375.907L36.25 28l.375-.938L34 26.032zM17.156 31.22 15.5 33.5l.813.594 1.656-2.282-.813-.593zm13.907 0-.813.593 1.656 2.282.813-.594-1.657-2.281zM23.5 35.187V38h1v-2.813h-1z" color="#000" font-family="Sans" font-weight="400" overflow="visible" style="line-height:normal;-inkscape-font-specification:Sans;text-indent:0;text-align:start;text-decoration-line:none;text-transform:none;block-progression:tb;marker:none"></path></svg>