<svg xmlns="http://www.w3.org/2000/svg" width="48" height="48" id="sales"><path style="line-height:normal;text-indent:0;text-align:start;text-decoration-line:none;text-decoration-style:solid;text-decoration-color:#000;text-transform:none;block-progression:tb;isolation:auto;mix-blend-mode:normal" fill-rule="evenodd" d="M24 0C10.751 0 0 10.751 0 24s10.751 24 24 24 24-10.751 24-24S37.249 0 24 0zm0 1c12.708 0 23 10.291 23 23S36.708 47 24 47 1 36.709 1 24 11.292 1 24 1zm-12.998 9v28h28v-1h-27v-6.645l7.049-6.414 4.957 4.76 2.994-2.994 4 4 1-1L37.295 34h-.793v1h2.5v-2.5h-1v.793l-6-6-1 1-4-4-3.008 3.008-4.203-4.033 3.129-2.848 5.254 4.209 9.992-9v.873h1v-2.5h-2.5v1h.7l-9.23 8.314-5.257-4.21-3.81 3.466-7.067-6.783V10h-1zm1 7.182 6.326 6.072-6.326 5.756V17.182z" color="#000" font-family="sans-serif" font-weight="400" overflow="visible"></path></svg>