<svg xmlns="http://www.w3.org/2000/svg" fill-rule="evenodd" stroke-linejoin="round" stroke-miterlimit="2" clip-rule="evenodd" viewBox="0 0 32 32" id="category"><path d="M30 20c0-.796-.316-1.559-.879-2.121A2.996 2.996 0 0 0 27 17h-7c-.796 0-1.559.316-2.121.879A2.996 2.996 0 0 0 17 20v7c0 .796.316 1.559.879 2.121A2.996 2.996 0 0 0 20 30h7c.796 0 1.559-.316 2.121-.879A2.996 2.996 0 0 0 30 27v-7Zm-15 0c0-.796-.316-1.559-.879-2.121A2.996 2.996 0 0 0 12 17H5c-.796 0-1.559.316-2.121.879A2.996 2.996 0 0 0 2 20v7c0 .796.316 1.559.879 2.121A2.996 2.996 0 0 0 5 30h7c.796 0 1.559-.316 2.121-.879A2.996 2.996 0 0 0 15 27v-7Zm13 0v7a.997.997 0 0 1-1 1h-7a.997.997 0 0 1-1-1v-7a.997.997 0 0 1 1-1h7a.997.997 0 0 1 1 1Zm-15 0v7a.997.997 0 0 1-1 1H5a.997.997 0 0 1-1-1v-7a.997.997 0 0 1 1-1h7a.997.997 0 0 1 1 1Zm2-15c0-.796-.316-1.559-.879-2.121A2.996 2.996 0 0 0 12 2H5c-.796 0-1.559.316-2.121.879A2.996 2.996 0 0 0 2 5v7c0 .796.316 1.559.879 2.121A2.996 2.996 0 0 0 5 15h7c.796 0 1.559-.316 2.121-.879A2.996 2.996 0 0 0 15 12V5Zm15 0c0-.796-.316-1.559-.879-2.121A2.996 2.996 0 0 0 27 2h-7c-.796 0-1.559.316-2.121.879A2.996 2.996 0 0 0 17 5v7c0 .796.316 1.559.879 2.121A2.996 2.996 0 0 0 20 15h7c.796 0 1.559-.316 2.121-.879A2.996 2.996 0 0 0 30 12V5ZM13 5v7a.997.997 0 0 1-1 1H5a.997.997 0 0 1-1-1V5a.997.997 0 0 1 1-1h7a.997.997 0 0 1 1 1Zm15 0v7a.997.997 0 0 1-1 1h-7a.997.997 0 0 1-1-1V5a.997.997 0 0 1 1-1h7a.997.997 0 0 1 1 1Z"></path></svg>