<svg xmlns="http://www.w3.org/2000/svg" data-name="Layer 1" viewBox="0 0 128 128" id="team-work"><path d="M23.062 52.407a5.968 5.968 0 0 1-3.826 1.581 17.015 17.015 0 0 0 27.528 0 5.968 5.968 0 0 1-3.826-1.581 13.048 13.048 0 0 1-19.876 0zm85.702 1.581a5.968 5.968 0 0 1-3.826-1.581 13.047 13.047 0 0 1-19.876 0 5.968 5.968 0 0 1-3.826 1.581 17.015 17.015 0 0 0 27.528 0zM5.081 51.992h2.876a24.561 24.561 0 0 0 2.257 5.243l-1.967 1.887a4.706 4.706 0 0 0-1.437 3.422 5.487 5.487 0 0 0 1.717 3.91l2.451 2.355a5.412 5.412 0 0 0 7.4.256l2.044-1.962c.232.124.47.235.704.353a10.17 10.17 0 0 1 2.555-3.225 22.772 22.772 0 0 1-2.516-1.313 2 2 0 0 0-2.431.262l-3.126 3a1.435 1.435 0 0 1-1.861-.258L11.3 63.57a1.475 1.475 0 0 1-.49-1.028.718.718 0 0 1 .21-.538L14.152 59a2 2 0 0 0 .278-2.555 20.611 20.611 0 0 1-2.981-6.898 2 2 0 0 0-1.95-1.556H5.08A1.245 1.245 0 0 1 4 46.657v-3.322A1.245 1.245 0 0 1 5.081 42h3.411a2 2 0 0 0 0-4H5.081A5.218 5.218 0 0 0 0 43.335v3.322a5.218 5.218 0 0 0 5.081 5.335zM122.919 38h-3.411a2 2 0 0 0 0 4h3.41A1.245 1.245 0 0 1 124 43.335v3.322a1.245 1.245 0 0 1-1.081 1.335h-4.417a2 2 0 0 0-1.95 1.555 20.624 20.624 0 0 1-2.982 6.899 1.999 1.999 0 0 0 .278 2.555l3.129 3a.721.721 0 0 1 .212.542 1.475 1.475 0 0 1-.488 1.026l-2.445 2.35a1.436 1.436 0 0 1-1.865.26l-3.125-3a1.996 1.996 0 0 0-2.432-.26 22.761 22.761 0 0 1-2.515 1.313 10.17 10.17 0 0 1 2.555 3.224c.234-.118.472-.229.703-.353l2.044 1.962a5.412 5.412 0 0 0 7.403-.26l2.45-2.353a5.484 5.484 0 0 0 1.715-3.908 4.704 4.704 0 0 0-1.44-3.426l-1.963-1.883a24.519 24.519 0 0 0 2.257-5.243h2.876A5.218 5.218 0 0 0 128 46.657v-3.322A5.218 5.218 0 0 0 122.919 38zM98.246 82.576A5.995 5.995 0 0 0 104 76.378v-4.18A5.995 5.995 0 0 0 98.246 66h-4.153a2 2 0 0 0 0 4h4.153A2.016 2.016 0 0 1 100 72.197v4.181a2.016 2.016 0 0 1-1.754 2.198h-5.379a2 2 0 0 0-1.953 1.57 27.064 27.064 0 0 1-3.704 8.868 2 2 0 0 0 .27 2.502l3.807 3.782a1.487 1.487 0 0 1 .42 1.074 2.426 2.426 0 0 1-.756 1.686l-2.981 2.959a2.077 2.077 0 0 1-2.823.326l-3.81-3.775a2.001 2.001 0 0 0-2.48-.268 27.532 27.532 0 0 1-8.948 3.68 2 2 0 0 0-1.576 1.954v5.339A2.05 2.05 0 0 1 66.11 110h-4.22a2.05 2.05 0 0 1-2.223-1.727v-5.339a2 2 0 0 0-1.577-1.955 27.58 27.58 0 0 1-8.95-3.68 2 2 0 0 0-2.48.27l-3.807 3.775a2.082 2.082 0 0 1-2.825-.325l-2.98-2.96a2.436 2.436 0 0 1-.754-1.688 1.49 1.49 0 0 1 .414-1.073l3.814-3.78a2 2 0 0 0 .271-2.507 26.96 26.96 0 0 1-3.707-8.866 2 2 0 0 0-1.953-1.57h-5.38A2.04 2.04 0 0 1 28 76.379v-4.18A2.04 2.04 0 0 1 29.752 70h4.155a2 2 0 0 0 0-4h-4.155A5.994 5.994 0 0 0 24 72.197v4.181a5.994 5.994 0 0 0 5.752 6.198h3.817a30.885 30.885 0 0 0 3.014 7.214l-2.695 2.67a5.472 5.472 0 0 0-1.594 3.912 6.457 6.457 0 0 0 1.934 4.525l2.985 2.963a6.04 6.04 0 0 0 8.457.323l2.703-2.68a31.513 31.513 0 0 0 7.293 3.001v3.769A5.997 5.997 0 0 0 61.89 114h4.22a5.997 5.997 0 0 0 6.223-5.727v-3.769a31.493 31.493 0 0 0 7.293-3l2.702 2.678a6.036 6.036 0 0 0 8.458-.325l2.984-2.96a6.444 6.444 0 0 0 1.937-4.528 5.456 5.456 0 0 0-1.602-3.91l-2.686-2.669a31.017 31.017 0 0 0 3.013-7.214z"></path><path d="M50.562 83.82A5.965 5.965 0 0 1 47 85c-.196 0-.39-.01-.581-.03a21.631 21.631 0 0 0 35.162 0c-.191.02-.385.03-.581.03a5.965 5.965 0 0 1-3.562-1.18 17.7 17.7 0 0 1-26.876 0zM45 66.948V79a2 2 0 0 0 4 0V66.948c0-3.93 3.673-7.525 7.89-7.91a14.095 14.095 0 0 1-3.728-3.19C48.492 57.636 45 62.056 45 66.948zm34 0V79a2 2 0 0 0 4 0V66.948c0-4.892-3.492-9.312-8.162-11.1a14.093 14.093 0 0 1-3.727 3.19c4.215.385 7.889 3.98 7.889 7.91zM63.986 77h.034a3.466 3.466 0 0 0 2.499-1.078l2.49-2.614a3.64 3.64 0 0 0 .957-2.986l-1.382-10.109a13.901 13.901 0 0 1-3.934.754l-1.237.003a13.908 13.908 0 0 1-3.936-.734l-1.439 9.9a3.605 3.605 0 0 0 .902 2.964l2.533 2.77A3.469 3.469 0 0 0 63.986 77z"></path><circle cx="64" cy="47" r="10"></circle><path d="M32.986 49h.034a3.466 3.466 0 0 0 2.498-1.077l2.492-2.615a3.646 3.646 0 0 0 .956-2.986l-1-7.313a12.897 12.897 0 0 1-3.908.937l-2.078.002a12.9 12.9 0 0 1-3.908-.925l-1.034 7.114a3.605 3.605 0 0 0 .902 2.963l2.533 2.77A3.469 3.469 0 0 0 32.986 49zM19 50a2 2 0 0 0 2-2v-8.86a6.46 6.46 0 0 1 4.323-5.673 13.092 13.092 0 0 1-2.948-3A10.267 10.267 0 0 0 17 39.139V48a2 2 0 0 0 2 2zm26-10.86V48a2 2 0 0 0 4 0v-8.86a10.267 10.267 0 0 0-5.375-8.673 13.092 13.092 0 0 1-2.948 3A6.46 6.46 0 0 1 45 39.139z"></path><circle cx="33" cy="23" r="9"></circle><path d="M94.984 49h.036a3.466 3.466 0 0 0 2.499-1.078l2.49-2.614a3.64 3.64 0 0 0 .957-2.986l-1-7.313a12.9 12.9 0 0 1-3.909.937l-2.077.002a12.897 12.897 0 0 1-3.908-.925l-1.034 7.114a3.603 3.603 0 0 0 .903 2.963l2.532 2.769A3.467 3.467 0 0 0 94.984 49zM81 50a2 2 0 0 0 2-2v-8.86a6.46 6.46 0 0 1 4.323-5.673 13.091 13.091 0 0 1-2.948-3A10.267 10.267 0 0 0 79 39.139V48a2 2 0 0 0 2 2zm26-10.86V48a2 2 0 0 0 4 0v-8.86a10.267 10.267 0 0 0-5.375-8.673 13.093 13.093 0 0 1-2.948 3A6.46 6.46 0 0 1 107 39.139z"></path><circle cx="95" cy="23" r="9"></circle></svg>