<svg xmlns="http://www.w3.org/2000/svg" data-name="Layer 1" viewBox="0 0 128 128" id="variation"><path d="M49 0a4 4 0 0 0-4 4V38a4 4 0 0 0 4 4H77a4 4 0 0 0 4-4V4a4 4 0 0 0-4-4zM73 88a8.009 8.009 0 0 0 8-8V54a8.009 8.009 0 0 0-8-8H53a8.00909 8.00909 0 0 0-8 8V80a8.00909 8.00909 0 0 0 8 8zM63 128a18 18 0 1 0-18-18A18.02039 18.02039 0 0 0 63 128zM112 44c0-13.78516-10.76611-25-24-25a2 2 0 0 0 0 4c11.02783 0 20 9.4209 20 21 0 10.28741-7.08752 18.854-16.40118 20.64117l3.14972-5.66949a2.00038 2.00038 0 0 0-3.49707-1.94336l-5 9a1.969 1.969 0 0 0-.08954.20807c-.009.02173-.0257.03827-.034.06049-.00446.01178-.00336.02429-.00757.03613a1.97628 1.97628 0 0 0-.11017.5257c-.00238.03363-.00031.066-.001.09967a1.9913 1.9913 0 0 0 .0459.47321c.00568.02563.00757.05133.01422.07672a2.001 2.001 0 0 0 .20227.48407c.01862.03247.03937.06256.05988.09412a1.972 1.972 0 0 0 .34027.40485l.01135.01355.00958.00836.00665.00586 7.98376 6.98578a1.99972 1.99972 0 1 0 2.63379-3.00977l-4.55811-3.98828C103.72021 66.2002 112 56.08789 112 44zM35.24121 111.50684l-4.55811 3.98828a1.99972 1.99972 0 1 0 2.63379 3.00977l7.98376-6.98578.00665-.00586.00958-.00836.01135-.01355a1.972 1.972 0 0 0 .34027-.40485c.02051-.03156.04126-.06165.05988-.09412a2.001 2.001 0 0 0 .20227-.48407c.00665-.02539.00854-.05109.01422-.07672a1.9913 1.9913 0 0 0 .0459-.47321c-.00067-.03363.0014-.066-.001-.09967a1.97628 1.97628 0 0 0-.11017-.5257c-.00421-.01184-.00311-.02435-.00757-.03613-.0083-.02222-.025-.03876-.034-.06049a1.969 1.969 0 0 0-.08954-.20807l-5-9a2.00038 2.00038 0 0 0-3.49707 1.94336l3.14972 5.66949C27.08752 105.854 20 97.28741 20 87c0-11.5791 8.97217-21 20-21a2 2 0 0 0 0-4C26.76611 62 16 73.21484 16 87 16 99.08789 24.27979 109.2002 35.24121 111.50684z"></path></svg>